<?xml version="1.0" encoding="UTF-8"?>
<svg version="1.1" xmlns="http://www.w3.org/2000/svg" width="430" height="342">
<path d="M0 0 C10.16032211 9.34204114 12.69418603 21.88090802 13.32421875 35.125 C13.83229118 72.77778561 -8.51962631 110.22557333 -33.859375 136.640625 C-53.73880132 155.90096884 -78.85866103 169.39868116 -106.921875 170.515625 C-112.80025338 169.92778716 -112.80025338 169.92778716 -115.671875 167.140625 C-116.95667488 164.2069119 -117.8729294 161.23897502 -118.671875 158.140625 C-117.72828125 158.04265625 -116.7846875 157.9446875 -115.8125 157.84375 C-98.12143972 155.78334539 -84.24541569 149.81817905 -70.671875 138.140625 C-69.85976562 137.46257812 -69.04765625 136.78453125 -68.2109375 136.0859375 C-39.69399014 111.52717842 -19.78223257 73.3112447 -14.671875 36.140625 C-14.14190653 26.21390795 -13.9333078 17.8730947 -19.546875 9.265625 C-23.15106334 5.66143666 -26.32502303 5.00949749 -31.296875 4.765625 C-44.97546386 5.11012279 -56.78184363 13.55484232 -66.05493164 22.98706055 C-101.71732779 60.97017041 -121.86252103 115.65857948 -138.859375 163.890625 C-139.22082611 164.9143219 -139.58227722 165.9380188 -139.9546814 166.99273682 C-150.23058282 196.13765531 -159.8956618 225.43363075 -168.421875 255.140625 C-168.67707916 256.02635193 -168.93228333 256.91207886 -169.19522095 257.824646 C-172.81175301 270.32069261 -172.81175301 270.32069261 -175.12597656 283.109375 C-175.79293873 285.59109469 -176.64459181 286.58698335 -178.671875 288.140625 C-182.31289504 288.69469327 -184.13268193 288.44156997 -187.359375 286.640625 C-193.70146325 279.78431338 -193.8320198 270.31758154 -193.875 261.453125 C-193.88201431 260.49541199 -193.88902863 259.53769897 -193.89625549 258.55096436 C-193.9138953 255.41413739 -193.92012392 252.2775 -193.921875 249.140625 C-193.92254974 248.0642981 -193.92322449 246.98797119 -193.92391968 245.87902832 C-193.8537087 175.09323677 -185.68458084 78.61013382 -143.671875 19.140625 C-142.681875 17.655625 -142.681875 17.655625 -141.671875 16.140625 C-171.71186186 18.2816952 -202.31205872 31.47510318 -225.19238281 50.88720703 C-226.54226066 52.03081642 -227.91459444 53.14778419 -229.2890625 54.26171875 C-239.35251892 62.68181612 -246.86687663 74.25420058 -248.609375 87.453125 C-248.84204341 91.8315215 -248.50731689 95.1360245 -246.671875 99.140625 C-244.17546372 100.65855144 -244.17546372 100.65855144 -241.671875 101.140625 C-242.02208741 103.67966496 -242.51199373 104.96155798 -244.234375 106.890625 C-247.75163777 108.6943495 -250.86048173 108.87942768 -254.671875 108.140625 C-260.97055274 105.36783752 -265.38452021 101.42337972 -267.921875 94.953125 C-270.20911028 83.32634564 -267.5557062 73.56259742 -261.484375 63.453125 C-238.45459703 29.54007643 -188.61026822 14.06359851 -150.75683594 6.6953125 C-126.28563729 2.29529957 -126.28563729 2.29529957 -119.734375 5.640625 C-119.05375 6.135625 -118.373125 6.630625 -117.671875 7.140625 C-118.14455088 13.71276218 -119.45877444 18.71406942 -122.109375 24.703125 C-142.55362537 73.61428954 -153.10426971 128.36259744 -162.27392578 180.3203125 C-162.671875 182.140625 -162.671875 182.140625 -163.671875 184.140625 C-160.81813544 182.71375522 -160.6288291 180.63247581 -159.64266968 177.74583435 C-159.38804962 176.9776387 -159.13342957 176.20944305 -158.87109375 175.41796875 C-158.30731409 173.76358101 -157.7432556 172.10928827 -157.17895508 170.45507812 C-156.88276276 169.57859619 -156.58657043 168.70211426 -156.28140259 167.79907227 C-145.28307423 135.34248216 -132.42980355 103.64838666 -116.71386719 73.16259766 C-115.97387592 71.72665397 -115.23796671 70.28860341 -114.50488281 68.84912109 C-109.08960296 58.22684138 -103.4006911 47.98827193 -96.671875 38.140625 C-96.02734375 37.18929687 -95.3828125 36.23796875 -94.71875 35.2578125 C-89.61503385 27.97568092 -83.78815657 21.56536457 -77.671875 15.140625 C-76.94226563 14.33496094 -76.21265625 13.52929688 -75.4609375 12.69921875 C-56.72331987 -7.32704544 -23.75443196 -17.77847423 0 0 Z " fill="#0D0D0D" transform="translate(277.671875,26.859375)"/>
<path d="M0 0 C1.875 2.75 1.875 2.75 1.68359375 5.203125 C0.79349058 8.00673497 -0.16680295 9.15105272 -2.1875 11.25 C-18.22013202 31.06857182 -20.9057955 63.3338256 -22.125 87.75 C-25.88186297 88.72304684 -26.92003696 88.83270438 -30.6875 87.3125 C-35.78439426 84.03275935 -37.43137966 79.63942417 -38.80859375 73.90234375 C-41.85610787 56.94135139 -39.97362801 41.12993029 -35.125 24.75 C-60.34431122 48.2880238 -77.25396205 80.82106564 -92.78759766 111.16943359 C-93.96918622 113.44935165 -95.17994554 115.70741922 -96.41796875 117.95703125 C-108.68425579 140.28604756 -120.54546748 164.51490987 -124.2890625 189.90625 C-125.125 192.75 -125.125 192.75 -127.0234375 194.1640625 C-130.07687938 195.01539388 -132.09578259 194.63352174 -135.125 193.75 C-139.29787632 190.76937406 -140.83854705 186.55985914 -142.125 181.75 C-142.92478976 176.92610616 -143.26370763 172.28176824 -143.29296875 167.39453125 C-143.29720352 166.70386063 -143.30143829 166.01319 -143.30580139 165.30158997 C-143.3156876 163.05516468 -143.31571388 160.80894328 -143.3125 158.5625 C-143.31189575 157.7867865 -143.3112915 157.011073 -143.31066895 156.21185303 C-143.0740976 43.6990976 -143.0740976 43.6990976 -112.125 12.75 C-108.29744553 9.56037127 -105.01000267 9.40069969 -100.2109375 9.3515625 C-98.125 9.75 -98.125 9.75 -96.4140625 10.8359375 C-94.45819759 13.74010056 -93.98397005 16.32111255 -94.125 19.75 C-94.97282491 23.69385829 -96.24435871 27.48203904 -97.5 31.3125 C-106.4928226 60.28959512 -112.37396895 89.91767867 -117.44873047 119.79833984 C-118.29820934 124.78998786 -119.20247543 129.77137186 -120.125 134.75 C-117.5313889 132.44508529 -116.26488931 130.253837 -114.8828125 127.0859375 C-114.46346436 126.14161865 -114.04411621 125.1972998 -113.61206055 124.22436523 C-113.16258057 123.20157471 -112.71310059 122.17878418 -112.25 121.125 C-100.35933615 94.70596166 -86.69012502 68.87694167 -69.125 45.75 C-68.69654785 45.18555176 -68.2680957 44.62110352 -67.82666016 44.03955078 C-22.09437517 -15.90795012 -22.09437517 -15.90795012 0 0 Z " fill="#0D0D0D" transform="translate(415.125,121.25)"/>
<path d="M0 0 C0.66 0.33 1.32 0.66 2 1 C-3.94 6.94 -9.88 12.88 -16 19 C-16.66 18.67 -17.32 18.34 -18 18 C-6.66287016 5.33029613 -6.66287016 5.33029613 0 0 Z " fill="#5A5A5A" transform="translate(380,129)"/>
<path d="M0 0 C0.66 0.99 1.32 1.98 2 3 C-1 6 -4 9 -7 12 C-7.66 11.67 -8.32 11.34 -9 11 C-6.03 7.37 -3.06 3.74 0 0 Z " fill="#4A4A4A" transform="translate(361,148)"/>
</svg>
